<svg id="Layer_1" data-name="Layer 1" xmlns="http://www.w3.org/2000/svg" viewBox="0 0 56 56"><defs><style>.cls-1{fill:none;stroke:#888989;stroke-linecap:round;stroke-linejoin:round;stroke-width:2px;}</style></defs><title>capuccino_line</title><path class="cls-1" d="M22.87,10.5a3.75,3.75,0,0,1,1.48,7.2"/><path class="cls-1" d="M22.87,10.5a3.75,3.75,0,0,1,0-7.5"/><path class="cls-1" d="M32.14,12.29a2.86,2.86,0,0,1,0,5.71"/><path class="cls-1" d="M32.14,12.29a2.86,2.86,0,1,1,0-5.71"/><path class="cls-1" d="M44,29a7,7,0,0,0-6.87-7h0A11,11,0,0,0,28,17.21a11.34,11.34,0,0,0-10.52,6.84,4.61,4.61,0,0,0-.91-0.15C14.2,23.91,12.28,26.7,12,29"/><path class="cls-1" d="M42.17,42.88c3.92-.33,7.82-1.91,7.82-6a2.32,2.32,0,0,0-.29-1.39C49.26,35,47.45,35,45.84,35.05"/><path class="cls-1" d="M46.33,31c2.73,0,4.57,0,6.2,1.6A5.74,5.74,0,0,1,54,36.87C54,44.16,46.89,47,40.5,47H39.12"/><line class="cls-1" x1="39" y1="49" x2="17" y2="49"/><path class="cls-1" d="M46,29H10c0,7,4,17,9.78,20H36.22C42,46,46,36,46,29Z"/></svg>