<svg id="Layer_1" data-name="Layer 1" xmlns="http://www.w3.org/2000/svg" xmlns:xlink="http://www.w3.org/1999/xlink" viewBox="0 0 56 56"><defs><style>.cls-1,.cls-3{fill:none;stroke:#888989;stroke-miterlimit:10;stroke-width:2px;}.cls-1{clip-rule:evenodd;}.cls-2{clip-path:url(#clip-path);}.cls-3{fill-rule:evenodd;}.cls-4{clip-path:url(#clip-path-2);}.cls-5{clip-path:url(#clip-path-3);}</style><clipPath id="clip-path"><path class="cls-1" d="M42.71,41.71c-3.34,3.34-7.39,4.72-10.76,1.35s-2-7.42,1.35-10.76,7.39-4.72,10.76-1.35S46.05,38.37,42.71,41.71Z"/></clipPath><clipPath id="clip-path-2"><path class="cls-1" d="M35,20c0,5-2,9-7,9s-7-4-7-9,2-9,7-9S35,15,35,20Z"/></clipPath><clipPath id="clip-path-3"><path class="cls-1" d="M13.29,41.71c3.34,3.34,7.39,4.72,10.76,1.35s2-7.42-1.35-10.76-7.39-4.72-10.76-1.35S9.95,38.37,13.29,41.71Z"/></clipPath></defs><title>coffee_grains_line</title><g class="cls-2"><path class="cls-3" d="M44.05,30.95C43.54,33.59,42.16,34.8,38,37s-5.54,3.41-6.05,6.05l-4.71-4.71L39.35,26.24Z"/></g><path class="cls-3" d="M42.71,41.71c-3.34,3.34-7.39,4.72-10.76,1.35s-2-7.42,1.35-10.76,7.39-4.72,10.76-1.35S46.05,38.37,42.71,41.71Z"/><g class="cls-4"><path class="cls-3" d="M28,11c1.58,2.35,1.45,4.27,0,9s-1.58,6.65,0,9H21V11h7Z"/></g><path class="cls-3" d="M35,20c0,5-2,9-7,9s-7-4-7-9,2-9,7-9S35,15,35,20Z"/><g class="cls-5"><path class="cls-3" d="M11.95,30.95C12.46,33.59,13.84,34.8,18,37s5.54,3.41,6.05,6.05l4.71-4.71L16.65,26.24Z"/></g><path class="cls-3" d="M13.29,41.71c3.34,3.34,7.39,4.72,10.76,1.35s2-7.42-1.35-10.76-7.39-4.72-10.76-1.35S9.95,38.37,13.29,41.71Z"/></svg>