<?xml version="1.0" encoding="utf-8"?>
<svg viewBox="4.89 3.826 24 24" width="24" height="24" xmlns="http://www.w3.org/2000/svg">
  <path d="M 27.566 3.826 L 6.214 3.826 C 5.483 3.826 4.89 4.419 4.89 5.15 L 4.89 26.502 C 4.89 27.234 5.483 27.826 6.214 27.826 L 17.708 27.826 L 17.708 18.532 L 14.579 18.532 L 14.579 14.911 L 17.708 14.911 L 17.708 12.236 C 17.708 9.137 19.602 7.451 22.367 7.451 C 23.692 7.451 24.831 7.548 25.163 7.592 L 25.163 10.832 L 23.242 10.832 C 21.742 10.832 21.45 11.553 21.45 12.603 L 21.45 14.914 L 25.034 14.914 L 24.569 18.544 L 21.45 18.544 L 21.45 27.826 L 27.565 27.826 C 28.298 27.826 28.89 27.234 28.89 26.502 L 28.89 5.15 C 28.89 4.419 28.298 3.826 27.566 3.826" style="fill: rgb(59, 89, 152);"/>
</svg>