<svg id="Layer_1" data-name="Layer 1" xmlns="http://www.w3.org/2000/svg" viewBox="0 0 56 56"><defs><style>.cls-1{fill:none;}.cls-1,.cls-2,.cls-3{stroke:#888989;stroke-linecap:round;stroke-linejoin:round;stroke-width:2px;}.cls-2{fill:#e2e2e1;}.cls-3{fill:#fff;}</style></defs><title>tea_line</title><path class="cls-1" d="M21.25,18.5a5.25,5.25,0,0,1,0,10.5"/><path class="cls-1" d="M21.25,18.5a5.25,5.25,0,0,1,0-10.5"/><path class="cls-1" d="M33.75,21.5a3.75,3.75,0,0,1,0,7.5"/><path class="cls-1" d="M33.75,21.5a3.75,3.75,0,0,1,0-7.5"/><path class="cls-1" d="M42.16,42.88c3.92-.33,7.83-1.91,7.83-6a2.32,2.32,0,0,0-.29-1.39C49.26,35,47.45,35,45.84,35.05H45.33"/><path class="cls-1" d="M46,31c2.73,0,4.87,0,6.49,1.6A5.74,5.74,0,0,1,54,36.87C54,44.16,46.89,47,40.5,47H39.3"/><line class="cls-2" x1="39" y1="49" x2="17" y2="49"/><path class="cls-1" d="M46,29H10c0,7,4,17,9.78,20H36.22C42,46,46,36,46,29Z"/><polygon class="cls-3" points="14 37 18 33 22 37 22 45 14 45 14 37"/><line class="cls-1" x1="18" y1="29" x2="18" y2="37"/></svg>